<?xml version="1.0" encoding="utf-8"?>
<!-- Generator: Adobe Illustrator 27.3.1, SVG Export Plug-In . SVG Version: 6.00 Build 0)  -->
<svg version="1.1" id="Layer_1" xmlns="http://www.w3.org/2000/svg" xmlns:xlink="http://www.w3.org/1999/xlink" x="0px" y="0px"
	 viewBox="0 0 16 16" style="enable-background:new 0 0 16 16;" xml:space="preserve">
<style type="text/css">
	.st0{fill-rule:evenodd;clip-rule:evenodd;fill:#010101;}
	.st1{fill-rule:evenodd;clip-rule:evenodd;fill:#FFFFFF;}
	.st2{fill-rule:evenodd;clip-rule:evenodd;fill:#F6871F;}
</style>
<g>
	<path class="st0" d="M4.42,4.17L7.6,2.26C8.58,1.68,9.86,2,10.45,2.98l3.51,5.84c0.59,0.98,0.27,2.26-0.71,2.85l-3.18,1.91
		c-0.98,0.59-2.26,0.27-2.85-0.71L3.71,7.03C3.12,6.05,3.44,4.76,4.42,4.17z"/>
	<path class="st1" d="M9.86,2.22L13,4.02c0.97,0.55,1.2,1.79,0.64,2.83l-3.3,6.16c-0.31,0.57-1.02,0.93-1.66,1.01
		c-0.51,0.06-0.98-0.06-1.57-0.4l-3.14-1.8C3.01,11.27,2.72,10,3.33,9l3.66-5.96C7.6,2.04,8.89,1.67,9.86,2.22z"/>
	<path class="st2" d="M9.88,2.22l3.24,1.8c1,0.55,1.37,1.83,0.81,2.83l-3.3,5.96c-0.55,1-1.83,1.37-2.83,0.81l-3.24-1.8
		C3.56,11.27,3.19,10,3.75,9l3.3-5.96C7.6,2.04,8.88,1.67,9.88,2.22z"/>
	<polygon class="st1" points="12.22,10.42 10.53,12.98 11.85,10.6 	"/>
	<path class="st0" d="M4.01,10.19c-1.75,0.26-3.22,0.64-0.97,0.97c2.25,0.33,5.07,1.01,6.22,0.53l4.56-1.91
		c0.38-0.16,0.31-0.36-0.08-0.44c-0.59-0.12-1.26-0.24-1.37-0.25C12.37,9.09,4.4,9.88,4.01,10.19z"/>
	<path class="st0" d="M9.06,8.62C8.74,8.61,8.58,8.6,8.26,8.58c-0.4-0.02-0.76,0.56-0.8,1.31s0.24,1.37,0.64,1.4
		c0.33,0.02,0.48,0.03,0.8,0.05c0.4,0.02,0.76-0.56,0.8-1.31C9.75,9.27,9.46,8.65,9.06,8.62z"/>
	<path class="st0" d="M13,8.01C12.82,8,12.74,8,12.56,7.98c-0.22-0.01-0.41,0.4-0.44,0.92c-0.02,0.52,0.13,0.95,0.35,0.96
		c0.18,0.01,0.26,0.02,0.44,0.03c0.22,0.01,0.41-0.4,0.44-0.92C13.38,8.46,13.22,8.02,13,8.01z"/>
	<path class="st0" d="M4.19,8.92c-0.18-0.04-0.26-0.06-0.44-0.1C3.53,8.78,3.34,9.16,3.31,9.68c-0.02,0.52,0.13,0.97,0.35,1.02
		c0.18,0.04,0.26,0.06,0.44,0.1c0.22,0.05,0.41-0.33,0.44-0.85C4.57,9.43,4.41,8.97,4.19,8.92z"/>
	<path class="st1" d="M1.81,9.5C1.79,9.25,1.78,8.95,1.84,8.73C1.88,8.56,1.97,8.4,2.08,8.27c0.01-0.14,0.06-0.31,0.1-0.43
		C2.24,7.67,2.33,7.51,2.47,7.4c0.08-0.06,0.17-0.1,0.26-0.13c0.11-0.05,0.23-0.09,0.34-0.13c0.31-0.11,0.61-0.2,0.92-0.3
		C4.39,6.72,4.8,6.6,5.2,6.48c1.08-0.89,1.84-1.22,3.27-1.23c1.1-0.01,2.63,0.08,3.58,0.68c0.28,0.18,0.58,0.4,0.8,0.65
		c0.06,0.07,0.15,0.14,0.23,0.19c0.09,0.07,0.18,0.13,0.28,0.18c0.05,0.03,0.11,0.07,0.17,0.09c0.21,0.1,0.26,0.32,0.3,0.54
		c0.02,0.16,0.04,0.33,0.05,0.49c0.02,0.21,0.01,0.43,0.03,0.64c0.05,0.46-0.17,0.62-0.54,0.63l-0.08-1.3v-0.3L2.78,8.5
		c-0.38-0.09-0.42,1.56-0.49,1.62C1.77,10.1,1.67,9.69,1.81,9.5z"/>
	<path class="st0" d="M5.3,6.67c1.05-0.86,1.76-1.2,3.17-1.21c1.03-0.01,2.55,0.07,3.47,0.64c0.25,0.16,0.55,0.39,0.75,0.61
		c0.07,0.08,0.17,0.16,0.26,0.22c0.1,0.07,0.19,0.13,0.3,0.19c0.06,0.03,0.12,0.07,0.18,0.1c0.13,0.06,0.16,0.25,0.18,0.38
		c0.02,0.16,0.04,0.32,0.05,0.48c0.01,0.14,0.02,0.29,0.03,0.43c0.01,0.08,0.01,0.16,0.02,0.24c0.01,0.12-0.01,0.26-0.08,0.36
		l-0.01,0.02l-0.49,0.4V9.14c0-0.13,0-0.27,0-0.4c0-0.11-0.01-0.24-0.03-0.35c-0.01-0.03-0.03-0.1-0.05-0.14
		c-0.01,0-0.02,0.01-0.02,0.01c-0.09,0.06-0.17,0.38-0.19,0.49c-0.04,0.21-0.07,0.45-0.08,0.67l-0.01,0.12l-3.25,1.11l0.04-0.3
		C9.57,9.98,9.59,9.3,9.46,8.96c-0.04-0.1-0.11-0.2-0.21-0.24C9.01,8.64,8.78,8.95,8.69,9.11c-0.07,0.12-0.12,0.26-0.15,0.4
		c-0.07,0.27-0.1,0.56-0.11,0.85c-0.01,0.11-0.01,0.22-0.01,0.33c-0.01,0.09-0.01,0.2-0.08,0.26c-0.14,0.15-0.68,0.14-0.88,0.13
		c-0.32-0.01-0.65-0.03-0.98-0.07c-0.49-0.05-0.98-0.13-1.47-0.21c-0.44-0.08-2.68-0.46-3.02-0.82C1.86,9.84,1.92,9.68,2.03,9.56
		C2,9.32,1.99,8.98,2.04,8.78c0.04-0.15,0.13-0.31,0.24-0.43c0,0,0,0,0,0c0-0.13,0.05-0.33,0.09-0.44C2.42,7.78,2.49,7.65,2.6,7.57
		c0.06-0.04,0.14-0.08,0.21-0.1c0.11-0.04,0.22-0.08,0.33-0.12c0.3-0.1,0.61-0.2,0.92-0.3C4.47,6.92,4.88,6.79,5.3,6.67z"/>
	<path class="st2" d="M5.39,6.84C4.8,7.01,2.89,7.58,2.71,7.72C2.54,7.85,2.47,8.28,2.47,8.36c0,0.08,0,0.08,0,0.08
		s-0.18,0.14-0.25,0.4c-0.07,0.26,0,0.81,0,0.81s-0.18,0.12-0.1,0.21c0.09,0.09,0.6,0.36,2.91,0.76c2.31,0.4,3.09,0.28,3.17,0.2
		c0.08-0.08-0.04-1.14,0.33-1.8c0.37-0.67,0.91-0.6,1.1-0.11c0.19,0.49,0.08,1.46,0.08,1.46l2.86-0.98c0,0-0.06-0.49,0.03-0.9
		c0.04-0.19,0.15-0.41,0.24-0.47c0.18-0.11,0.43,0,0.5,0.17c0.13,0.32,0.1,0.55,0.1,0.86l0.04-0.04c0,0,0.07-0.1,0.05-0.24
		c-0.02-0.14-0.07-1.33-0.17-1.37c-0.1-0.05-0.58-0.32-0.8-0.57c-0.15-0.17-0.57-0.55-1.12-0.8c-0.7-0.32-2.23-0.4-2.95-0.39
		C7.12,5.66,6.45,5.96,5.39,6.84z"/>
	<path class="st2" d="M3.03,8.17C3.01,8.2,2.99,8.32,2.99,8.48c0,0.07,0.05,0.12,0.12,0.14c0.6,0.16,1.71,0.3,2.41,0.37
		C5.64,9,5.76,9.02,5.82,8.9c0.06-0.13,0.06-0.23-0.01-0.3C5.76,8.55,4.89,8.44,4.17,8.34C3.53,8.26,3.04,8.17,3.03,8.17L3.03,8.17z
		 M2.97,8.66c0-0.01,0.54,0.22,1.3,0.29C4.58,8.99,5.2,9.1,5.6,9.07c0.14-0.01,0.14-0.02,0.04,0.1C5.4,9.46,5.15,9.48,4.59,9.42
		C3.98,9.36,3.58,9.27,3.23,9.14C3.08,9.08,2.99,8.86,2.97,8.66z"/>
	<path class="st2" d="M2.2,8.97C2.17,9.25,2.22,9.65,2.22,9.65s-0.18,0.12-0.1,0.21c0.09,0.09,0.6,0.36,2.91,0.76
		c2.31,0.4,3.09,0.28,3.17,0.2c0.08-0.08-0.04-1.14,0.33-1.8c0.37-0.67,0.91-0.6,1.1-0.11c0.19,0.49,0.08,1.46,0.08,1.46l2.86-0.98
		c0,0-0.03-1.12,0.27-1.29c0.29-0.17,0.43,0.06,0.5,0.32c0.08,0.31,0.04,0.7,0.05,0.69l0.09-0.1c0,0,0.07-0.1,0.05-0.24
		c-0.01-0.11-0.05-0.89-0.11-1.22c-0.01,0.06-0.03,0.12-0.05,0.17c-0.06,0.17-0.99,0.23-0.99,0.23L9.66,8.58c0,0-0.19-0.3-0.54-0.27
		C8.76,8.35,8.51,8.89,8.3,9.29C8.13,9.6,7.68,9.79,7.39,9.83c0.3,0.22,0.55,0.84,0.4,0.88c-0.15,0.04-1.05-0.04-1.13-0.12
		C6.59,10.5,6.5,9.92,6.45,9.9C6.4,9.88,5.69,9.8,5.69,9.8c0.17-0.04,0.35-0.07,0.54-0.09C5.86,9.71,5.53,9.75,5.49,9.77
		c-0.1,0.05-0.5-0.03-0.5-0.03S2.93,9.45,2.83,9.37C2.73,9.3,2.33,9.03,2.2,8.97z"/>
	<path class="st0" d="M2.21,8.89C2.16,9.17,2.19,9.61,2.19,9.61C2.2,9.66,2.3,9.7,2.36,9.72C2.43,9.73,2.5,9.75,2.52,9.7
		C2.55,9.61,2.59,9.44,2.6,9.33C2.62,9.17,2.61,9.13,2.21,8.89z"/>
	<path class="st0" d="M2.71,7.72C2.54,7.85,2.47,8.28,2.47,8.36c0,0.08,0,0.08,0,0.08s0,0-0.01,0.01c0.03,0.03,0.21,0.14,0.31,0.19
		C2.8,8.65,2.83,8.63,2.83,8.61c0.02-0.14,0-0.4,0-0.44C2.83,8.13,2.76,7.68,2.71,7.72z"/>
	<path class="st0" d="M7.15,5.8C6.55,5.98,6.04,6.3,5.4,6.83l4.33,0.39c0,0,0.51-1.22,0.47-1.28C10.16,5.89,8.08,5.83,7.15,5.8z"/>
	<path class="st0" d="M5.8,6.48C5.61,6.36,5.34,6.38,5.24,6.71C5.15,7.03,5.54,6.77,5.8,6.48z"/>
	<path class="st0" d="M6.61,8.46c-0.36,0.24-0.79,0.73-0.41,0.7C6.57,9.14,7.67,9.1,7.87,8.89c0.2-0.21,0.49-0.65,0.3-0.69
		C7.98,8.17,7,8.33,6.61,8.46z"/>
	<path class="st0" d="M2.99,8.1C2.97,8.12,2.94,8.25,2.94,8.41c0,0.07,0.05,0.12,0.12,0.14c0.62,0.16,1.78,0.3,2.51,0.37
		C5.7,8.93,5.83,8.95,5.89,8.83C5.95,8.7,5.95,8.6,5.88,8.53C5.82,8.48,4.92,8.37,4.17,8.27C3.51,8.18,2.99,8.09,2.99,8.1L2.99,8.1z
		 M2.95,8.61c0-0.01,0.53,0.2,1.32,0.27C4.6,8.91,5.24,9.02,5.67,8.99c0.14-0.01,0.14-0.02,0.04,0.1C5.46,9.39,5.19,9.4,4.61,9.35
		C3.97,9.28,3.57,9.18,3.21,9.05C3.05,9,2.98,8.81,2.95,8.61z"/>
	<path class="st0" d="M5.53,9.8C6.1,9.67,6.89,9.61,7.2,9.81c0.31,0.2,0.58,0.86,0.43,0.9c-0.15,0.04-1.05-0.04-1.13-0.12
		C6.43,10.5,6.34,9.92,6.29,9.9C6.24,9.88,5.53,9.8,5.53,9.8z"/>
	<path class="st0" d="M7.04,10.04c-0.24-0.01-0.34-0.03-0.55-0.03C6.25,10,5.92,10,6.02,10.05c0.06,0.03,0.29,0.06,0.44,0.08
		C6.76,10.15,7.03,10.14,7.04,10.04z"/>
	<path class="st0" d="M7.19,10.33c-0.52-0.02-1.21-0.07-1.02,0C6.36,10.41,7.18,10.48,7.19,10.33z"/>
	<path class="st0" d="M2.67,9.83C2.87,9.6,2.89,9.45,3.16,9.48c0.28,0.03,2.06,0.34,2.06,0.34s0.22,0.06,0.41,0.32
		c0.19,0.25,0.19,0.25,0.19,0.25S4.68,10.41,2.67,9.83z"/>
	<path class="st0" d="M10.01,9.68c2.11-0.72,2.11-0.72,2.11-0.72l-0.27,0.4L9.99,9.99L10.01,9.68z"/>
	<path class="st0" d="M13.42,7.56c-0.68-0.22-3.1,0.23-4.73,0.58L8.62,8.15c0.75-0.32,3.82-0.78,4.54-0.86
		c0.09,0.05,0.16,0.09,0.2,0.11c0.01,0.01,0.03,0.04,0.04,0.09L13.42,7.56z"/>
	<path class="st0" d="M10.42,6.26c-0.15,0.39-0.31,1.02-0.27,1.03c0.05,0,2.13-0.32,2.16-0.36c0.07-0.1-0.4-0.44-0.67-0.59
		c-0.44-0.25-0.84-0.31-1.04-0.35C10.51,5.97,10.48,6.11,10.42,6.26z"/>
	<path class="st0" d="M10.58,6.78c-0.11,0.01-0.22,0.12-0.22,0.41c0,0.05,0,0.09,0,0.13c0.01,0.38,0.34,0.32,0.32-0.03
		c0,0,0.52-0.02,0.59-0.08c0.03-0.03,0.07-0.08-0.05-0.2C11.11,6.88,10.86,6.75,10.58,6.78z"/>
	<polygon class="st0" points="10.01,9.55 12.51,8.78 11.98,9.13 9.99,9.97 	"/>
	<path class="st0" d="M3.16,7.53L3.11,7.58C2.97,7.74,2.63,8.04,3,8.09c0.53,0.08,1.5,0.22,2.23,0.32c0.42,0.06,0.69,0.12,0.94,0.1
		C6.4,8.48,7.05,8.29,7.75,8.07c0.8-0.26,1.65-0.55,1.96-0.67c0.23-0.09,0.06-0.16-0.2-0.21l0.17-0.04c0,0,0.39,0.11,0.19,0.27
		C9.81,7.48,8.76,7.84,7.78,8.15c-0.7,0.22-1.36,0.42-1.59,0.44c-0.29,0.03-0.52-0.01-1-0.08C4.49,8.41,3.5,8.25,3,8.18
		c-0.45-0.06-0.2-0.37-0.03-0.58C3.02,7.58,3.09,7.56,3.16,7.53z"/>
	<path class="st1" d="M9.1,8.94c-0.13-0.01-0.26,0.1-0.36,0.27C8.63,9.4,8.56,9.66,8.54,9.95c0,0.04,0,0.07,0,0.11
		c0,0.26,0.05,0.5,0.13,0.67c0.08,0.16,0.18,0.27,0.3,0.28c0,0,0.01,0,0.01,0c0.13,0.01,0.26-0.1,0.36-0.27
		c0.11-0.19,0.18-0.45,0.19-0.74c0-0.04,0-0.07,0-0.11c0-0.26-0.05-0.5-0.13-0.67c-0.08-0.16-0.18-0.27-0.3-0.28
		C9.11,8.94,9.11,8.94,9.1,8.94L9.1,8.94z M8.66,9.16C8.78,8.96,8.93,8.83,9.1,8.84c0,0,0.01,0,0.02,0C9.27,8.86,9.41,8.99,9.5,9.19
		C9.59,9.37,9.64,9.62,9.64,9.9c0,0.04,0,0.08,0,0.12c-0.02,0.31-0.09,0.58-0.21,0.78C9.31,11,9.16,11.13,8.99,11.12
		c0,0-0.01,0-0.02,0c-0.16-0.02-0.29-0.14-0.38-0.34c-0.09-0.19-0.14-0.44-0.14-0.71c0-0.04,0-0.08,0-0.12
		C8.47,9.63,8.55,9.36,8.66,9.16z"/>
	<path class="st1" d="M9.08,9.7c-0.03,0-0.07,0.02-0.1,0.07C8.95,9.82,8.93,9.89,8.93,9.98c0,0.01,0,0.02,0,0.03
		c0,0.07,0.01,0.14,0.04,0.19c0.02,0.04,0.05,0.07,0.08,0.07l0,0c0.03,0,0.07-0.02,0.1-0.07c0.03-0.05,0.06-0.12,0.06-0.21
		c0-0.01,0-0.02,0-0.03c0-0.07-0.01-0.14-0.04-0.19C9.14,9.73,9.12,9.7,9.08,9.7L9.08,9.7L9.08,9.7z M8.91,9.71
		C8.95,9.64,9.02,9.6,9.08,9.61c0,0,0,0,0.01,0c0.06,0.01,0.12,0.05,0.15,0.12C9.28,9.79,9.3,9.87,9.3,9.96c0,0.01,0,0.02,0,0.04
		c-0.01,0.1-0.03,0.19-0.07,0.25c-0.05,0.07-0.11,0.11-0.18,0.11c0,0,0,0-0.01,0c-0.06-0.01-0.12-0.05-0.15-0.12
		C8.85,10.17,8.83,10.09,8.83,10c0-0.01,0-0.02,0-0.04C8.84,9.87,8.87,9.78,8.91,9.71z"/>
	<path class="st1" d="M8.99,9.76c-0.06,0-0.11,0.09-0.12,0.21c-0.01,0.12,0.04,0.22,0.09,0.22c0.06,0,0.11-0.09,0.12-0.21
		C9.09,9.86,9.04,9.76,8.99,9.76z"/>
	<path class="st1" d="M8.99,9.8c-0.01,0-0.02,0.01-0.04,0.04C8.93,9.87,8.92,9.92,8.92,9.97c0,0.01,0,0.01,0,0.02
		c0,0.05,0.01,0.09,0.02,0.12c0.01,0.02,0.02,0.03,0.03,0.03h0c0,0,0,0,0,0c0.01,0,0.02-0.01,0.04-0.04
		c0.02-0.03,0.03-0.08,0.03-0.13c0-0.01,0-0.01,0-0.02c0-0.05-0.01-0.09-0.02-0.12C9,9.81,9,9.8,8.99,9.8L8.99,9.8
		C8.99,9.8,8.99,9.8,8.99,9.8L8.99,9.8z M8.87,9.79C8.9,9.74,8.94,9.71,8.99,9.71l0,0c0.04,0,0.08,0.04,0.1,0.09
		c0.02,0.04,0.03,0.1,0.03,0.16c0,0.01,0,0.01,0,0.02c0,0.07-0.02,0.13-0.04,0.17c-0.03,0.05-0.07,0.08-0.12,0.08l0,0
		c-0.04,0-0.08-0.04-0.1-0.09c-0.02-0.04-0.03-0.1-0.03-0.16c0-0.01,0-0.01,0-0.02C8.83,9.89,8.85,9.83,8.87,9.79L8.87,9.79z
		 M8.97,10.14C8.97,10.14,8.97,10.14,8.97,10.14L8.97,10.14z M8.99,9.8"/>
	<path class="st1" d="M13.03,8.23c-0.07,0-0.14,0.07-0.2,0.19c-0.06,0.13-0.1,0.31-0.11,0.52c0,0.03,0,0.05,0,0.08
		c0,0.18,0.03,0.35,0.07,0.47c0.04,0.11,0.1,0.19,0.17,0.19c0,0,0,0,0.01,0c0.07,0,0.14-0.07,0.2-0.19c0.06-0.13,0.1-0.31,0.11-0.52
		c0-0.03,0-0.05,0-0.08c0-0.18-0.03-0.35-0.07-0.47C13.16,8.31,13.1,8.24,13.03,8.23C13.03,8.23,13.03,8.23,13.03,8.23L13.03,8.23z
		 M12.78,8.39c0.06-0.14,0.15-0.23,0.24-0.22c0,0,0.01,0,0.01,0c0.09,0.01,0.16,0.1,0.21,0.23c0.05,0.13,0.08,0.3,0.08,0.5
		c0,0.03,0,0.05,0,0.08c-0.01,0.21-0.05,0.41-0.11,0.54c-0.06,0.14-0.15,0.23-0.24,0.22c0,0-0.01,0-0.01,0
		c-0.09-0.01-0.16-0.1-0.21-0.23c-0.05-0.13-0.08-0.3-0.08-0.5c0-0.03,0-0.05,0-0.08C12.68,8.72,12.72,8.53,12.78,8.39z"/>
	<path class="st1" d="M13.02,8.76c-0.02,0-0.04,0.02-0.05,0.05c-0.02,0.04-0.03,0.09-0.03,0.15c0,0.01,0,0.01,0,0.02
		c0,0.05,0.01,0.1,0.02,0.13c0.01,0.03,0.03,0.05,0.04,0.05l0,0c0.02,0,0.04-0.02,0.05-0.05c0.02-0.04,0.03-0.09,0.03-0.15
		c0-0.01,0-0.01,0-0.02c0-0.05-0.01-0.1-0.02-0.13C13.05,8.78,13.03,8.76,13.02,8.76L13.02,8.76L13.02,8.76z M12.92,8.77
		c0.02-0.05,0.06-0.08,0.1-0.08c0,0,0,0,0,0c0.03,0,0.06,0.04,0.08,0.08c0.02,0.04,0.03,0.1,0.03,0.16c0,0.01,0,0.02,0,0.03
		c0,0.07-0.02,0.13-0.04,0.17c-0.02,0.05-0.06,0.08-0.1,0.08c0,0,0,0,0,0c-0.03,0-0.06-0.04-0.08-0.08
		c-0.02-0.04-0.03-0.1-0.03-0.16c0-0.01,0-0.02,0-0.03C12.88,8.88,12.9,8.82,12.92,8.77z"/>
	<path class="st1" d="M12.96,8.8c-0.03,0-0.06,0.06-0.06,0.14c0,0.08,0.02,0.15,0.05,0.15c0.03,0,0.06-0.06,0.06-0.14
		C13.02,8.87,12.99,8.8,12.96,8.8z"/>
	<path class="st1" d="M12.96,8.83c-0.01,0-0.01,0.01-0.02,0.03c-0.01,0.02-0.02,0.05-0.02,0.09c0,0,0,0.01,0,0.01
		c0,0.03,0,0.06,0.01,0.08c0,0.01,0.01,0.02,0.01,0.02h0c0,0,0,0,0,0c0.01,0,0.01-0.01,0.02-0.03c0.01-0.02,0.02-0.05,0.02-0.09
		c0,0,0-0.01,0-0.01c0-0.03,0-0.06-0.01-0.08C12.97,8.84,12.97,8.83,12.96,8.83L12.96,8.83C12.96,8.83,12.96,8.83,12.96,8.83
		L12.96,8.83z M12.9,8.82c0.02-0.04,0.04-0.06,0.06-0.06l0,0c0.02,0,0.04,0.03,0.06,0.06c0.01,0.03,0.02,0.07,0.02,0.11
		c0,0,0,0.01,0,0.02c0,0.05-0.01,0.09-0.02,0.12C13,9.11,12.98,9.13,12.95,9.13l0,0c-0.02,0-0.04-0.03-0.06-0.06
		C12.88,9.04,12.87,9,12.87,8.96c0,0,0-0.01,0-0.02C12.88,8.89,12.88,8.85,12.9,8.82L12.9,8.82z M12.95,9.06
		C12.95,9.06,12.95,9.06,12.95,9.06L12.95,9.06z M12.96,8.83"/>
	<path class="st0" d="M2.18,8.86c0.33,0.18,0.49,0.31,0.73,0.54C2.59,9.36,2.47,9.3,2.17,9.21L2.18,8.86z"/>
	<path class="st0" d="M2.23,9.32C2.35,9.35,2.39,9.36,2.49,9.4C2.6,9.44,2.75,9.5,2.7,9.51C2.67,9.52,2.56,9.5,2.49,9.48
		C2.35,9.45,2.23,9.39,2.23,9.32z"/>
	<path class="st0" d="M2.2,9.47c0.24,0.08,0.56,0.18,0.47,0.19C2.57,9.68,2.19,9.57,2.2,9.47z"/>
	<path class="st1" d="M8.09,8.42c-0.42,0.04-1.2,0.01-1.53,0.26c-0.13,0.1-0.29,0.27-0.41,0.39c0.11-0.17,0.21-0.3,0.37-0.44
		C6.86,8.35,7.64,8.35,8.08,8.3L8.09,8.42z"/>
	<path class="st1" d="M8.05,8.3c0.23-0.02-0.18,0.47-0.26,0.53C7.73,8.89,7.56,8.91,7.47,8.93C7.34,8.95,7.34,8.95,7.34,8.95
		l0.02-0.13c0-0.01,0.02-0.01,0.05-0.02C7.65,8.77,7.67,8.5,7.53,8.46c0,0-0.14-0.02-0.14-0.02L7.4,8.39L8.05,8.3z"/>
	<path class="st1" d="M2.6,7.86c0.05,0.06,0.08,0.13,0.1,0.22c0.02,0.11,0.04,0.23,0.07,0.41c0-0.14,0-0.17-0.01-0.31
		C2.75,8,2.72,7.87,2.65,7.78C2.63,7.81,2.62,7.83,2.6,7.86z"/>
	<path class="st1" d="M2.47,8.36L2.47,8.36c0.04,0.03,0.14,0.11,0.14,0.1c0,0-0.01-0.02,0-0.1c0-0.01-0.01-0.02-0.03-0.03
		C2.46,8.22,2.57,7.85,2.7,8.04c0.02,0.03,0.05,0.06,0.05,0.06L2.73,7.95L2.6,7.86C2.51,8.04,2.47,8.3,2.47,8.36L2.47,8.36z"/>
	<path class="st1" d="M10.48,6.83c0.14,0,0.28,0.04,0.44,0.11c0.14,0.06,0.2,0.14,0.22,0.21c0.01,0.04,0.02,0.07,0.02,0.1
		c0.05-0.01,0.1-0.02,0.11-0.04c0.02-0.02,0.04-0.04,0.03-0.09c-0.01-0.03-0.03-0.06-0.08-0.11c-0.11-0.12-0.37-0.26-0.64-0.23
		C10.55,6.78,10.51,6.8,10.48,6.83z"/>
	<path class="st1" d="M6.78,6.74C6.35,6.63,6.59,6.33,7.49,5.88c-0.04,0-0.55-0.01-0.6,0.01C6.48,6.04,6.1,6.28,5.66,6.62
		c-0.07,0.06-0.14,0.12-0.2,0.16C5.44,6.8,5.42,6.81,5.4,6.83l3.37,0.3C8.16,7.05,7.21,6.84,6.78,6.74z"/>
	<path class="st0" d="M5.2,6.74c1.37,0.08,2.94,0.21,4.3,0.42c0.12,0.02,0.22,0.03,0.33,0.07l-0.06,0C8.22,7.09,6.74,6.94,5.19,6.87
		c-0.04,0-0.06-0.03-0.06-0.07C5.13,6.77,5.16,6.74,5.2,6.74z"/>
	<path class="st1" d="M9.43,7.38C9.16,7.49,6.43,8.39,6.02,8.39c-0.22,0-2.17-0.25-3-0.38C2.89,7.99,2.85,7.92,2.86,7.89
		C2.81,7.98,2.82,8.07,3,8.09c0.29,0.04,0.71,0.1,1.15,0.17C4.26,8.27,4.37,8.29,4.48,8.3C4.74,8.34,5,8.38,5.24,8.41
		c0.42,0.06,0.69,0.12,0.94,0.1C6.4,8.48,7.05,8.29,7.75,8.07c0.8-0.26,1.65-0.55,1.96-0.67c0.18-0.07,0.12-0.13-0.05-0.17
		C9.67,7.26,9.6,7.32,9.43,7.38z"/>
	<path class="st1" d="M1.93,9.67c-0.11,0.23,0.06,0.37,0.29,0.47c0.47,0.19,1.19,0.33,1.93,0.46c0.88,0.16,1.8,0.31,2.43,0.43
		l-0.14-0.01c-1.18-0.12-2.81-0.36-3.97-0.66c-0.46-0.12-0.88-0.33-0.67-0.77L1.93,9.67z"/>
	<polygon class="st1" points="9.72,10.55 12.44,9.67 9.66,10.73 	"/>
	<path class="st1" d="M9.59,8.49c0.61-0.18,2.76-0.63,3.28-0.61c-1.16,0.27-2.2,0.53-3.14,0.85L9.59,8.49z"/>
</g>
</svg>
